<?xml version="1.0" encoding="UTF-8" standalone="no"?>
<!DOCTYPE svg PUBLIC "-//W3C//DTD SVG 1.1//EN"
 "http://www.w3.org/Graphics/SVG/1.1/DTD/svg11.dtd">
<!-- Generated by graphviz version 2.38.0 (20140413.2041)
 -->
<!-- Title: AppState Pages: 1 -->
<svg width="242pt" height="432pt"
 viewBox="0.00 0.00 242.46 432.00" xmlns="http://www.w3.org/2000/svg" xmlns:xlink="http://www.w3.org/1999/xlink">
<g id="graph0" class="graph" transform="scale(1.43046 1.43046) rotate(0) translate(4 298)">
<title>AppState</title>
<!-- [null] -->
<g id="node1" class="node"><title>[null]</title>
<path fill="none" stroke="white" d="M53.3208,-294C53.3208,-294 23.3208,-294 23.3208,-294 17.3208,-294 11.3208,-288 11.3208,-282 11.3208,-282 11.3208,-270 11.3208,-270 11.3208,-264 17.3208,-258 23.3208,-258 23.3208,-258 53.3208,-258 53.3208,-258 59.3208,-258 65.3208,-264 65.3208,-270 65.3208,-270 65.3208,-282 65.3208,-282 65.3208,-288 59.3208,-294 53.3208,-294"/>
<text text-anchor="middle" x="38.3208" y="-271.8" font-family="Times,serif" font-size="14.00" fill="white">[null]</text>
</g>
<!-- Homepage -->
<g id="node2" class="node"><title>Homepage</title>
<path fill="none" stroke="white" d="M64.4632,-208C64.4632,-208 12.1784,-208 12.1784,-208 6.17837,-208 0.178365,-202 0.178365,-196 0.178365,-196 0.178365,-184 0.178365,-184 0.178365,-178 6.17837,-172 12.1784,-172 12.1784,-172 64.4632,-172 64.4632,-172 70.4632,-172 76.4632,-178 76.4632,-184 76.4632,-184 76.4632,-196 76.4632,-196 76.4632,-202 70.4632,-208 64.4632,-208"/>
<text text-anchor="middle" x="38.3208" y="-185.8" font-family="Times,serif" font-size="14.00" fill="white">Homepage</text>
</g>
<!-- [null]&#45;&gt;Homepage -->
<g id="edge1" class="edge"><title>[null]&#45;&gt;Homepage</title>
<path fill="none" stroke="white" d="M38.3208,-257.595C38.3208,-246.257 38.3208,-231.227 38.3208,-218.315"/>
<polygon fill="white" stroke="white" points="41.8209,-218.095 38.3208,-208.095 34.8209,-218.095 41.8209,-218.095"/>
<text text-anchor="middle" x="57.2495" y="-228.8" font-family="Times,serif" font-size="14.00" fill="white"> GET /</text>
</g>
<!-- User list -->
<g id="node3" class="node"><title>User list</title>
<path fill="none" stroke="white" d="M57.8726,-122C57.8726,-122 18.769,-122 18.769,-122 12.769,-122 6.76902,-116 6.76902,-110 6.76902,-110 6.76902,-98 6.76902,-98 6.76902,-92 12.769,-86 18.769,-86 18.769,-86 57.8726,-86 57.8726,-86 63.8726,-86 69.8726,-92 69.8726,-98 69.8726,-98 69.8726,-110 69.8726,-110 69.8726,-116 63.8726,-122 57.8726,-122"/>
<text text-anchor="middle" x="38.3208" y="-99.8" font-family="Times,serif" font-size="14.00" fill="white">User list</text>
</g>
<!-- Homepage&#45;&gt;User list -->
<g id="edge2" class="edge"><title>Homepage&#45;&gt;User list</title>
<path fill="none" stroke="white" d="M38.3208,-171.595C38.3208,-160.257 38.3208,-145.227 38.3208,-132.315"/>
<polygon fill="white" stroke="white" points="41.8209,-132.095 38.3208,-122.095 34.8209,-132.095 41.8209,-132.095"/>
<text text-anchor="middle" x="71.6357" y="-142.8" font-family="Times,serif" font-size="14.00" fill="white"> GET /users</text>
</g>
<!-- User list&#45;&gt;User list -->
<g id="edge3" class="edge"><title>User list&#45;&gt;User list</title>
<path fill="none" stroke="white" d="M70.2355,-111.867C80.1002,-111.708 87.8467,-109.086 87.8467,-104 87.8467,-100.901 84.9701,-98.7163 80.4906,-97.4466"/>
<polygon fill="white" stroke="white" points="80.5993,-93.932 70.2355,-96.1327 79.7096,-100.875 80.5993,-93.932"/>
<text text-anchor="middle" x="124.672" y="-99.8" font-family="Times,serif" font-size="14.00" fill="white"> POST /users</text>
</g>
<!-- User #123 -->
<g id="node4" class="node"><title>User #123</title>
<path fill="none" stroke="white" d="M63.2554,-36C63.2554,-36 13.3862,-36 13.3862,-36 7.3862,-36 1.3862,-30 1.3862,-24 1.3862,-24 1.3862,-12 1.3862,-12 1.3862,-6 7.3862,-0 13.3862,-0 13.3862,-0 63.2554,-0 63.2554,-0 69.2554,-0 75.2554,-6 75.2554,-12 75.2554,-12 75.2554,-24 75.2554,-24 75.2554,-30 69.2554,-36 63.2554,-36"/>
<text text-anchor="middle" x="38.3208" y="-13.8" font-family="Times,serif" font-size="14.00" fill="white">User #123</text>
</g>
<!-- User list&#45;&gt;User #123 -->
<g id="edge4" class="edge"><title>User list&#45;&gt;User #123</title>
<path fill="none" stroke="white" d="M38.3208,-85.5951C38.3208,-74.2572 38.3208,-59.2271 38.3208,-46.3153"/>
<polygon fill="white" stroke="white" points="41.8209,-46.0951 38.3208,-36.0952 34.8209,-46.0952 41.8209,-46.0951"/>
<text text-anchor="middle" x="84.0806" y="-56.8" font-family="Times,serif" font-size="14.00" fill="white"> GET /users/123</text>
</g>
</g>
</svg>
