<?xml version="1.0" encoding="UTF-8" standalone="no"?>
<!DOCTYPE svg PUBLIC "-//W3C//DTD SVG 1.1//EN"
 "http://www.w3.org/Graphics/SVG/1.1/DTD/svg11.dtd">
<!-- Generated by graphviz version 2.38.0 (20140413.2041)
 -->
<!-- Title: ResourceState Pages: 1 -->
<svg width="576pt" height="302pt"
 viewBox="0.00 0.00 576.00 302.07" xmlns="http://www.w3.org/2000/svg" xmlns:xlink="http://www.w3.org/1999/xlink">
<g id="graph0" class="graph" transform="scale(1.48072 1.48072) rotate(0) translate(4 200)">
<title>ResourceState</title>
<g id="clust1" class="cluster"><title>cluster0</title>
<polygon fill="none" stroke="white" points="8,-114 8,-188 373,-188 373,-114 8,-114"/>
<text text-anchor="start" x="159.205" y="-173.8" font-family="Times,serif" text-decoration="underline" font-size="14.00" fill="white">Initial state</text>
</g>
<g id="clust2" class="cluster"><title>cluster1</title>
<polygon fill="none" stroke="white" points="8,-8 8,-82 373,-82 373,-8 8,-8"/>
<text text-anchor="start" x="162.705" y="-67.8" font-family="Times,serif" text-decoration="underline" font-size="14.00" fill="white">New state</text>
</g>
<!-- homepage1 -->
<g id="node1" class="node"><title>homepage1</title>
<path fill="none" stroke="white" d="M298.142,-158C298.142,-158 245.858,-158 245.858,-158 239.858,-158 233.858,-152 233.858,-146 233.858,-146 233.858,-134 233.858,-134 233.858,-128 239.858,-122 245.858,-122 245.858,-122 298.142,-122 298.142,-122 304.142,-122 310.142,-128 310.142,-134 310.142,-134 310.142,-146 310.142,-146 310.142,-152 304.142,-158 298.142,-158"/>
<text text-anchor="middle" x="272" y="-135.8" font-family="Times,serif" font-size="14.00" fill="white">Homepage</text>
</g>
<!-- homepage1&#45;&gt;homepage1 -->
<g id="edge1" class="edge"><title>homepage1&#45;&gt;homepage1</title>
<path fill="none" stroke="white" d="M310.169,-147.817C320.478,-147.404 328.321,-144.799 328.321,-140 328.321,-137.001 325.257,-134.858 320.443,-133.572"/>
<polygon fill="white" stroke="white" points="320.548,-130.055 310.169,-132.183 319.61,-136.992 320.548,-130.055"/>
<text text-anchor="middle" x="347.25" y="-135.8" font-family="Times,serif" font-size="14.00" fill="white"> GET /</text>
</g>
<!-- User list (2 users) -->
<g id="node2" class="node"><title>User list (2 users)</title>
<path fill="none" stroke="white" d="M119.649,-158C119.649,-158 28.3515,-158 28.3515,-158 22.3515,-158 16.3515,-152 16.3515,-146 16.3515,-146 16.3515,-134 16.3515,-134 16.3515,-128 22.3515,-122 28.3515,-122 28.3515,-122 119.649,-122 119.649,-122 125.649,-122 131.649,-128 131.649,-134 131.649,-134 131.649,-146 131.649,-146 131.649,-152 125.649,-158 119.649,-158"/>
<text text-anchor="middle" x="74" y="-135.8" font-family="Times,serif" font-size="14.00" fill="white">User list (2 users)</text>
</g>
<!-- User list (2 users)&#45;&gt;User list (2 users) -->
<g id="edge2" class="edge"><title>User list (2 users)&#45;&gt;User list (2 users)</title>
<path fill="none" stroke="white" d="M131.664,-147.442C142.191,-146.5 149.574,-144.02 149.574,-140 149.574,-137.425 146.544,-135.481 141.598,-134.169"/>
<polygon fill="white" stroke="white" points="142.095,-130.704 131.664,-132.558 140.974,-137.614 142.095,-130.704"/>
<text text-anchor="middle" x="182.889" y="-135.8" font-family="Times,serif" font-size="14.00" fill="white"> GET /users</text>
</g>
<!-- User list (3 users) -->
<g id="node4" class="node"><title>User list (3 users)</title>
<path fill="none" stroke="white" d="M119.649,-52C119.649,-52 28.3515,-52 28.3515,-52 22.3515,-52 16.3515,-46 16.3515,-40 16.3515,-40 16.3515,-28 16.3515,-28 16.3515,-22 22.3515,-16 28.3515,-16 28.3515,-16 119.649,-16 119.649,-16 125.649,-16 131.649,-22 131.649,-28 131.649,-28 131.649,-40 131.649,-40 131.649,-46 125.649,-52 119.649,-52"/>
<text text-anchor="middle" x="74" y="-29.8" font-family="Times,serif" font-size="14.00" fill="white">User list (3 users)</text>
</g>
<!-- User list (2 users)&#45;&gt;User list (3 users) -->
<g id="edge5" class="edge"><title>User list (2 users)&#45;&gt;User list (3 users)</title>
<path fill="none" stroke="white" d="M74,-121.827C74,-105.643 74,-81.1307 74,-62.2733"/>
<polygon fill="white" stroke="white" points="77.5001,-62.199 74,-52.199 70.5001,-62.199 77.5001,-62.199"/>
<text text-anchor="middle" x="92.8672" y="-92.8" font-family="Times,serif" font-size="14.00" fill="white"> POST</text>
</g>
<!-- Homepage -->
<g id="node3" class="node"><title>Homepage</title>
<path fill="none" stroke="white" d="M298.142,-52C298.142,-52 245.858,-52 245.858,-52 239.858,-52 233.858,-46 233.858,-40 233.858,-40 233.858,-28 233.858,-28 233.858,-22 239.858,-16 245.858,-16 245.858,-16 298.142,-16 298.142,-16 304.142,-16 310.142,-22 310.142,-28 310.142,-28 310.142,-40 310.142,-40 310.142,-46 304.142,-52 298.142,-52"/>
<text text-anchor="middle" x="272" y="-29.8" font-family="Times,serif" font-size="14.00" fill="white">Homepage</text>
</g>
<!-- Homepage&#45;&gt;Homepage -->
<g id="edge3" class="edge"><title>Homepage&#45;&gt;Homepage</title>
<path fill="none" stroke="white" d="M310.169,-45.5391C320.478,-44.9304 328.321,-41.084 328.321,-34 328.321,-29.4618 325.102,-26.2524 320.078,-24.3716"/>
<polygon fill="white" stroke="white" points="320.651,-20.9176 310.169,-22.4609 319.325,-27.791 320.651,-20.9176"/>
<text text-anchor="middle" x="347.25" y="-29.8" font-family="Times,serif" font-size="14.00" fill="white"> GET /</text>
</g>
<!-- User list (3 users)&#45;&gt;User list (3 users) -->
<g id="edge4" class="edge"><title>User list (3 users)&#45;&gt;User list (3 users)</title>
<path fill="none" stroke="white" d="M131.664,-44.9864C142.191,-43.5957 149.574,-39.9336 149.574,-34 149.574,-30.1988 146.544,-27.3298 141.598,-25.393"/>
<polygon fill="white" stroke="white" points="142.204,-21.9391 131.664,-23.0136 140.574,-28.7466 142.204,-21.9391"/>
<text text-anchor="middle" x="182.889" y="-29.8" font-family="Times,serif" font-size="14.00" fill="white"> GET /users</text>
</g>
</g>
</svg>
